<?xml version="1.0" encoding="UTF-8"?>
<svg width="38px" height="38px" viewBox="0 0 38 38" version="1.1" xmlns="http://www.w3.org/2000/svg" xmlns:xlink="http://www.w3.org/1999/xlink">
    <!-- Generator: Sketch 52.5 (67469) - http://www.bohemiancoding.com/sketch -->
    <title>icon_add_thought</title>
    <desc>Created with Sketch.</desc>
    <defs>
        <linearGradient x1="0%" y1="50%" x2="100%" y2="50%" id="linearGradient-1">
            <stop stop-color="#FB8851" offset="0%"></stop>
            <stop stop-color="#E2526C" offset="100%"></stop>
        </linearGradient>
    </defs>
    <g id="icon_add_thought" stroke="none" stroke-width="1" fill="none" fill-rule="evenodd">
        <g id="Group" fill="url(#linearGradient-1)">
            <path d="M0,18.9999971 L2.17270566e-13,19 C1.58446291e-06,29.493418 8.50658203,38 19,38 C29.493418,37.9999984 38,29.493418 38,19 C38,8.50658203 29.493418,0 19,0 C8.50658203,2.10942324e-15 2.1938007e-13,8.50658203 2.1938007e-13,19 L0,18.9999971 Z" id="Path"></path>
        </g>
        <g id="写入" transform="translate(8.000000, 8.000000)" fill="#FFFFFF">
            <g id="Group">
                <path d="M18.7982286,8.06584655 C18.5642571,8.06584655 18.3302571,7.97647334 18.1517429,7.79769831 L14.1838857,3.8246814 C13.8268286,3.46715995 13.8268286,2.88752146 14.1838857,2.53 C14.5409143,2.17247854 15.1198286,2.17247854 15.4768571,2.53 L19.4446857,6.50301691 C19.8017429,6.86053836 19.8017429,7.44017685 19.4446857,7.79769831 C19.2661714,7.97644473 19.0322,8.06584655 18.7982286,8.06584655 Z" id="Shape" fill-rule="nonzero"></path>
                <path d="M0.942971429,21.97142 C0.437994278,21.9714611 0.0285942784,21.5615964 0.0285542784,21.0559625 C0.0285463016,20.9575236 0.0443935355,20.8597271 0.0754857069,20.7663407 L2.05942856,14.8086034 C2.10431796,14.6738267 2.1799111,14.5513571 2.28022853,14.4508818 L16.1677428,0.543534557 L16.1701428,0.541131436 C16.5204857,0.192907769 16.9844285,0.00111583143 17.4765714,0.00111583143 C17.9695428,0.00111583143 18.4335714,0.193451332 18.7832,0.542704908 L21.4286571,3.19157357 C21.7797428,3.54225757 21.9728571,4.00955016 21.9716571,4.50653846 C21.9704571,5.00040842 21.7770571,5.46355276 21.4270571,5.81097539 L7.54122853,19.7184656 C7.4407874,19.8190497 7.31832111,19.8948152 7.18354282,19.939753 L1.23174282,21.9244734 C1.13863253,21.9555664 1.04112339,21.9714187 0.942971389,21.9714201 Z M3.72588571,15.5927074 L2.38848571,19.6089519 L6.4008,18.2709571 L20.1355714,4.51480624 L20.1396,4.51077243 C20.1419143,4.50848375 20.1430857,4.5073394 20.1430857,4.50207542 C20.1431143,4.49369311 20.1389143,4.48954486 20.1364571,4.48705592 L17.491,1.83818726 C17.4873439,1.8340958 17.4820495,1.83185978 17.4765714,1.83209363 C17.4688286,1.83209363 17.4638857,1.83524057 17.4589429,1.84004681 L3.72588571,15.5927074 Z" id="Shape" fill-rule="nonzero"></path>
                <path d="M21.0571429,19.6469441 L16.4160857,19.6469441 C15.9111429,19.6469441 15.5018,19.2370689 15.5018,18.7314694 C15.5018,18.22587 15.9111429,17.8159948 16.4160857,17.8159948 L21.0571429,17.8159948 C21.5620857,17.8159948 21.9714286,18.22587 21.9714286,18.7314694 C21.9714286,19.2370689 21.5620857,19.6469441 21.0571429,19.6469441 Z" id="Path"></path>
                <path d="M18.7357143,21.9713914 C18.2307714,21.9713914 17.8214286,21.5615163 17.8214286,21.0559168 L17.8214286,16.4088244 C17.8214286,15.903225 18.2307714,15.4933498 18.7357143,15.4933498 C19.2406571,15.4933498 19.65,15.903225 19.65,16.4088244 L19.65,21.0559168 C19.65,21.5615163 19.2406571,21.9713914 18.7357143,21.9713914 Z" id="Path"></path>
            </g>
        </g>
    </g>
</svg>