<?xml version="1.0" encoding="UTF-8"?>
<svg width="62px" height="39px" viewBox="0 0 62 39" version="1.1" xmlns="http://www.w3.org/2000/svg" xmlns:xlink="http://www.w3.org/1999/xlink">
    <!-- Generator: Sketch 52.3 (67297) - http://www.bohemiancoding.com/sketch -->
    <title>icon_PGS</title>
    <desc>Created with Sketch.</desc>
    <defs>
        <linearGradient x1="0%" y1="50%" x2="100%" y2="50%" id="linearGradient-1">
            <stop stop-color="#FB8851" offset="0%"></stop>
            <stop stop-color="#E2526C" offset="100%"></stop>
        </linearGradient>
    </defs>
    <g id="icon_PGS" stroke="none" stroke-width="1" fill="none" fill-rule="evenodd">
        <path d="M6.34375,17.6875 L7.296875,17.6875 C9.35938531,17.6875 10.7343716,17.4635439 11.421875,17.015625 C12.1093784,16.5677061 12.453125,15.7760473 12.453125,14.640625 C12.453125,13.4218689 12.0859412,12.5625025 11.3515625,12.0625 C10.6171838,11.5624975 9.26563484,11.3125 7.296875,11.3125 L6.34375,11.3125 L6.34375,17.6875 Z M6.109375,20.734375 L6.109375,31 L2.625,31 L2.625,8.125 L8.25,8.125 C9.916675,8.125 11.1432252,8.21614492 11.9296875,8.3984375 C12.7161498,8.58073008 13.4010388,8.88020625 13.984375,9.296875 C14.7031286,9.82812766 15.265623,10.5442663 15.671875,11.4453125 C16.078127,12.3463587 16.28125,13.3385363 16.28125,14.421875 C16.28125,15.5052138 16.078127,16.5052037 15.671875,17.421875 C15.265623,18.3385463 14.7031286,19.0572891 13.984375,19.578125 C13.4010388,19.9947937 12.7161498,20.2916658 11.9296875,20.46875 C11.1432252,20.6458342 9.916675,20.734375 8.25,20.734375 L6.109375,20.734375 Z M32.6889094,19.28125 L41.7514094,19.28125 C41.7514094,19.4375008 41.7566177,19.6562486 41.7670344,19.9375 C41.7982846,20.677087 41.8139094,21.177082 41.8139094,21.4375 C41.8139094,24.6562661 40.8920436,27.1562411 39.0482844,28.9375 C37.2045252,30.7187589 34.6055928,31.609375 31.2514094,31.609375 C29.3764,31.609375 27.7045417,31.3333361 26.2357844,30.78125 C24.7670271,30.2291639 23.4805816,29.3958389 22.3764094,28.28125 C21.2930707,27.1770778 20.4623498,25.8802158 19.8842219,24.390625 C19.306094,22.9010342 19.0170344,21.3073002 19.0170344,19.609375 C19.0170344,17.8801997 19.3113023,16.2864656 19.8998469,14.828125 C20.4883915,13.3697844 21.3607786,12.0833389 22.5170344,10.96875 C23.6316233,9.87499453 24.9389019,9.04166953 26.4389094,8.46875 C27.9389169,7.89583047 29.5430675,7.609375 31.2514094,7.609375 C33.0535017,7.609375 34.6654648,7.93749672 36.0873469,8.59375 C37.509229,9.25000328 38.7774455,10.2552016 39.8920344,11.609375 L37.1732844,13.65625 C36.4024472,12.7604122 35.5326642,12.0937522 34.5639094,11.65625 C33.5951546,11.2187478 32.5118321,11 31.3139094,11 C28.8347303,11 26.8113131,11.7942629 25.2435969,13.3828125 C23.6758807,14.9713621 22.8920344,17.0364456 22.8920344,19.578125 C22.8920344,22.1614712 23.6758807,24.2578045 25.2435969,25.8671875 C26.8113131,27.4765705 28.8451469,28.28125 31.3451594,28.28125 C33.47017,28.28125 35.1420283,27.7864633 36.3607844,26.796875 C37.5795405,25.8072867 38.1889094,24.4583419 38.1889094,22.75 L38.1889094,22.421875 L32.6889094,22.421875 L32.6889094,19.28125 Z M44.7684438,26.421875 L47.7371938,25.046875 C48.0184452,26.0677134 48.534065,26.8463515 49.2840688,27.3828125 C50.0340726,27.9192735 50.9923963,28.1875 52.1590688,28.1875 C53.263241,28.1875 54.1408364,27.8802114 54.7918813,27.265625 C55.4429262,26.6510386 55.7684438,25.8281302 55.7684438,24.796875 C55.7684438,23.4531183 54.6538716,22.2552136 52.4246938,21.203125 C52.1121922,21.0468742 51.8726113,20.932292 51.7059438,20.859375 C49.1850979,19.6302022 47.5054272,18.5182341 46.6668813,17.5234375 C45.8283354,16.5286409 45.4090688,15.3125072 45.4090688,13.875 C45.4090688,12.0104073 46.041875,10.5000058 47.3075063,9.34375 C48.5731376,8.18749422 50.2319752,7.609375 52.2840688,7.609375 C53.9715772,7.609375 55.3830215,7.93489258 56.5184438,8.5859375 C57.6538661,9.23698242 58.4403166,10.1718689 58.8778188,11.390625 L55.9715688,12.890625 C55.5132332,12.1718714 55.010634,11.645835 54.4637563,11.3125 C53.9168786,10.979165 53.2892807,10.8125 52.5809438,10.8125 C51.5809388,10.8125 50.7866759,11.0729141 50.1981313,11.59375 C49.6095867,12.1145859 49.3153188,12.8124956 49.3153188,13.6875 C49.3153188,15.0625069 50.6069725,16.3437441 53.1903188,17.53125 C53.3882365,17.6250005 53.5444849,17.6979164 53.6590688,17.75 C55.9194968,18.7916719 57.4715646,19.8098909 58.3153188,20.8046875 C59.159073,21.7994841 59.5809438,23.0416592 59.5809438,24.53125 C59.5809438,26.6979275 58.898659,28.4192645 57.5340688,29.6953125 C56.1694786,30.9713605 54.3257471,31.609375 52.0028188,31.609375 C50.0548924,31.609375 48.4585542,31.1614628 47.2137563,30.265625 C45.9689584,29.3697872 45.1538624,28.08855 44.7684438,26.421875 Z" id="PGS" fill="url(#linearGradient-1)"></path>
    </g>
</svg>