<?xml version="1.0" encoding="UTF-8"?>
<svg width="38px" height="38px" viewBox="0 0 38 38" version="1.1" xmlns="http://www.w3.org/2000/svg" xmlns:xlink="http://www.w3.org/1999/xlink">
    <!-- Generator: Sketch 52.3 (67297) - http://www.bohemiancoding.com/sketch -->
    <title>icon_add_thought</title>
    <desc>Created with Sketch.</desc>
    <defs>
        <linearGradient x1="0%" y1="50%" x2="100%" y2="50%" id="linearGradient-1">
            <stop stop-color="#FB8851" offset="0%"></stop>
            <stop stop-color="#E2526C" offset="100%"></stop>
        </linearGradient>
    </defs>
    <g id="icon_add_thought" stroke="none" stroke-width="1" fill="none" fill-rule="evenodd">
        <g id="Group" fill="url(#linearGradient-1)">
            <path d="M0,18.9999971 L2.17270566e-13,19 C1.58446291e-06,29.493418 8.50658203,38 19,38 C29.493418,37.9999984 38,29.493418 38,19 C38,8.50658203 29.493418,0 19,0 C8.50658203,2.10942324e-15 2.1938007e-13,8.50658203 2.1938007e-13,19 L0,18.9999971 Z" id="Path"></path>
        </g>
        <g id="编辑" transform="translate(9.000000, 7.000000)" fill="#FFFFFF" fill-rule="nonzero">
            <path d="M21.5811914,6.48447377 L15.5309066,0.419801707 C14.9725212,-0.139933902 14.0671389,-0.139933902 13.5087535,0.419801707 C12.9503457,0.979537317 12.9503457,1.88705024 13.5087311,2.44678585 L19.5590159,8.51145792 C20.1174236,9.07121592 21.022806,9.07119353 21.5812137,8.51145792 C22.1395991,7.95172231 22.1395991,7.04420938 21.5811914,6.48447377 Z M12.2352844,3.73407698 C11.9547066,3.45283195 11.5865529,3.31302681 11.2188014,3.31441524 C10.8510722,3.31302681 10.4828962,3.45283195 10.2023183,3.73407698 C10.1669082,3.76957132 0,13.8436702 0,13.8436702 L0,22 L8.0650208,22 C8.0650208,22 18.2315492,11.8690878 18.2747786,11.8257332 C18.5561384,11.5437044 18.6955448,11.1733764 18.6933554,10.8037202 C18.6954331,10.4342208 18.5560043,10.0640496 18.2747563,9.78213277 C18.2314822,9.73877817 12.2707169,3.76959371 12.2352844,3.73407698 Z M6.72249644,19.3575194 L2.63621179,19.3575194 L2.63621179,15.2743943 C2.70973529,15.2243439 11.2188014,6.77998372 11.2188014,6.77998372 L15.2332158,10.8039442 C15.2332158,10.8039442 6.7643854,19.3007285 6.72249644,19.3575194 Z" id="Shape"></path>
        </g>
    </g>
</svg>